<svg width="36" height="34" viewBox="0 0 36 34" fill="none" xmlns="http://www.w3.org/2000/svg">
<path d="M35.5 15.0993C35.5041 13.2064 35.1215 11.3315 34.3745 9.58307C33.6275 7.83461 32.5309 6.24729 31.148 4.91293C29.7652 3.57857 28.1234 2.52365 26.318 1.80918C24.5125 1.09471 22.5791 0.734872 20.6295 0.750487C16.9117 0.740601 13.3312 2.11414 10.6246 4.58866L8.46547 0.839057L7.88768 1.16383C5.39741 2.55638 3.38041 4.62492 2.08456 7.11527C0.788711 9.60563 0.270451 12.4093 0.593481 15.1817C0.91651 17.9541 2.06677 20.5745 3.90287 22.7209C5.73896 24.8673 8.18093 26.4461 10.9287 27.2634L8.70871 30.9835L9.25616 31.3377C12.6533 33.2333 16.6858 33.7446 20.4704 32.7596C24.255 31.7746 27.4833 29.3736 29.4483 26.0824C31.3224 22.952 31.8884 19.2429 31.0297 15.7194H35.5V15.0993Z" fill="#436990"/>
</svg>
