<svg width="42" height="42" viewBox="0 0 42 42" fill="none" xmlns="http://www.w3.org/2000/svg">
<path d="M28.5748 30.3235C27.7802 30.3235 26.9857 30.3002 26.1911 30.3235C24.7188 30.3702 23.6205 31.0708 23.0129 32.4018C22.4287 33.7329 22.639 34.9939 23.5738 36.1148C24.5786 37.3057 24.789 38.59 24.1346 39.9911C23.4803 41.3689 22.3118 42.0228 20.8162 41.9994C15.7918 41.906 11.3049 40.3181 7.47236 37.0488C3.21917 33.4293 0.718659 28.8524 0.134429 23.2713C-0.49654 17.3633 1.09257 12.0624 4.92512 7.50885C8.31365 3.44564 12.637 0.970356 17.895 0.246452C24.3216 -0.640915 30.1639 0.853597 35.235 4.96351C39.0675 8.06929 41.3811 12.0858 41.9186 17.0364C42.5729 22.8743 39.2311 28.0817 33.7627 29.8098C33.2019 29.9966 32.6176 30.1367 32.0334 30.2068C30.8883 30.3002 29.7199 30.3235 28.5748 30.3936C28.5748 30.3469 28.5748 30.3469 28.5748 30.3235ZM33.7861 14.0006C31.7763 14.0473 30.2807 15.6119 30.3275 17.5968C30.3742 19.5117 31.9867 21.0062 33.9497 20.9595C35.8192 20.9128 37.3382 19.3248 37.3148 17.4333C37.2915 15.5185 35.7257 13.9773 33.7861 14.0006ZM4.66806 17.5034C4.66806 19.4416 6.23379 20.9828 8.17344 20.9828C10.0897 20.9828 11.6555 19.4182 11.6555 17.4801C11.6555 15.5419 10.1131 14.0006 8.15007 14.0006C6.21042 14.0006 4.64469 15.5652 4.66806 17.5034ZM15.2309 3.98273C12.9174 3.93603 11.0011 5.75747 10.9544 8.02259C10.9076 10.3811 12.7304 12.3193 15.0206 12.366C17.4043 12.4127 19.3206 10.5913 19.3673 8.25611C19.3907 5.89758 17.5912 4.02944 15.2309 3.98273ZM26.7987 3.98273C24.4618 3.98273 22.6156 5.85087 22.6156 8.18605C22.639 10.5212 24.5085 12.366 26.8221 12.366C29.1356 12.366 31.0052 10.4745 31.0052 8.1627C31.0285 5.82752 29.1356 3.95938 26.7987 3.98273Z" fill="#AB97FF"/>
</svg>
