<svg width="41" height="41" viewBox="0 0 41 41" fill="none" xmlns="http://www.w3.org/2000/svg">
<path d="M29.7373 10.9538H11.4248V29.2663H29.7373V10.9538Z" fill="#7F80B0"/>
<path d="M40.6464 11.2369V6.66418H38.3601C38.3601 4.33429 36.4657 2.4399 34.1358 2.4399V0.153564H29.5631V2.4399H26.6671V0.153564H22.0944V2.4399H19.1984V0.153564H14.6257V2.4399H11.7297V0.153564H7.15701V2.4399C4.82713 2.4399 2.93274 4.33429 2.93274 6.66418H0.646393V11.2369H2.93274V14.1329H0.646393V18.7055H2.93274V21.6016H0.646393V26.1742H2.93274V29.0703H0.646393V33.6429H2.93274C2.93274 35.9728 4.82713 37.8672 7.15701 37.8672V40.1536H11.7297V37.8672H14.6257V40.1536H19.1984V37.8672H22.0944V40.1536H26.6671V37.8672H29.5631V40.1536H34.1358V37.8672C36.4657 37.8672 38.3601 35.9728 38.3601 33.6429H40.6464V29.0703H38.3601V26.1742H40.6464V21.6016H38.3601V18.7055H40.6464V14.1329H38.3601V11.2369H40.6464ZM34.9414 32.4671C34.9414 33.5559 34.0487 34.4486 32.96 34.4486H8.33284C7.24411 34.4486 6.35135 33.5559 6.35135 32.4671V7.84001C6.35135 6.75128 7.24411 5.85852 8.33284 5.85852H32.96C34.0487 5.85852 34.9414 6.75128 34.9414 7.84001V32.4671Z" fill="#7F80B0"/>
</svg>
