<svg width="28" height="36" viewBox="0 0 28 36" fill="none" xmlns="http://www.w3.org/2000/svg">
<path d="M27.7257 30.5781L24.3289 4.60156C24.2835 4.1636 24.0757 3.75744 23.7454 3.46047C23.4151 3.1635 22.9853 2.9965 22.5379 2.99132H21.4263V1.44186C21.4263 1.19206 21.3256 0.952489 21.146 0.77586C20.9665 0.599231 20.7229 0.5 20.4691 0.5H7.53076C7.27688 0.5 7.03348 0.599231 6.85396 0.77586C6.67444 0.952489 6.57351 1.19206 6.57351 1.44186V2.99132H5.46192C5.01451 2.9965 4.58469 3.1635 4.25439 3.46047C3.92409 3.75744 3.71635 4.1636 3.67088 4.60156L0.274269 30.5781C0.0889956 32.3403 0.984373 33.039 2.28129 33.039H6.57351V34.5581C6.57351 34.8079 6.67444 35.0475 6.85396 35.2241C7.03348 35.4008 7.27688 35.5 7.53076 35.5H20.4691C20.7229 35.5 20.9665 35.4008 21.146 35.2241C21.3256 35.0475 21.4263 34.8079 21.4263 34.5581V33.039H25.7185C27.0154 33.0087 27.911 32.3099 27.7257 30.5781Z" fill="#FFC20E"/>
</svg>
