<svg width="624" height="508" viewBox="0 0 624 508" fill="none" xmlns="http://www.w3.org/2000/svg">
<path d="M606.3 0.899902H17.7C7.93999 0.899902 0 8.81991 0 18.5799V489.4C0 499.16 7.93999 507.1 17.7 507.1H606.3C616.06 507.1 624 499.18 624 489.4V18.5799C624 8.81991 616.06 0.899902 606.3 0.899902ZM35.38 141.44V36.2399H588.6V141.44H35.38ZM35.38 471.72V176.8H588.6V471.72H35.38Z" fill="white"/>
<path d="M100.7 108.86C111.712 108.86 120.64 99.9326 120.64 88.92C120.64 77.9074 111.712 68.98 100.7 68.98C89.6872 68.98 80.7598 77.9074 80.7598 88.92C80.7598 99.9326 89.6872 108.86 100.7 108.86Z" fill="white"/>
<path d="M170.6 108.86C181.613 108.86 190.54 99.9326 190.54 88.92C190.54 77.9074 181.613 68.98 170.6 68.98C159.588 68.98 150.66 77.9074 150.66 88.92C150.66 99.9326 159.588 108.86 170.6 108.86Z" fill="white"/>
<path d="M240.46 108.86C251.472 108.86 260.4 99.9326 260.4 88.92C260.4 77.9074 251.472 68.98 240.46 68.98C229.447 68.98 220.52 77.9074 220.52 88.92C220.52 99.9326 229.447 108.86 240.46 108.86Z" fill="white"/>
</svg>
