<svg width="454" height="600" viewBox="0 0 454 600" fill="none" xmlns="http://www.w3.org/2000/svg">
<path d="M86.2807 245.24C76.6207 245.24 68.7207 253.14 68.7207 262.8C68.7207 272.46 76.6207 280.34 86.2807 280.34H356.641C366.301 280.34 374.201 272.46 374.201 262.8C374.201 253.14 366.301 245.24 356.641 245.24H86.2807Z" fill="white"/>
<path d="M15.18 600C6.96 600 0 593.16 0 585.08V15.16C0 6.8 6.8 0 15.18 0H309.26C313.26 0 317.16 1.68 320.2 4.72L449.18 133.94C452.18 136.54 453.9 140.42 453.9 144.62V585.06C453.9 593.14 446.92 599.98 438.72 599.98L15.18 600ZM30.36 569.92H423.8V159.78H309.26C300.92 159.78 294.1 152.98 294.1 144.64V30.08H30.36V569.92ZM324.46 129.7H402.46L324.46 51.4V129.7Z" fill="white"/>
<path d="M86.2807 323.28C76.6207 323.28 68.7207 331.18 68.7207 340.84C68.7207 350.5 76.6207 358.4 86.2807 358.4H356.641C366.301 358.4 374.201 350.5 374.201 340.84C374.201 331.18 366.301 323.28 356.641 323.28H86.2807Z" fill="white"/>
<path d="M86.2807 401.3C76.6207 401.3 68.7207 409.2 68.7207 418.86C68.7207 428.54 76.6207 436.4 86.2807 436.4H356.641C366.301 436.4 374.201 428.54 374.201 418.86C374.201 409.2 366.301 401.3 356.641 401.3H86.2807Z" fill="white"/>
</svg>
